<?xml version="1.0" encoding="UTF-8" standalone="no"?>
<svg
   xmlns:dc="http://purl.org/dc/elements/1.1/"
   xmlns:cc="http://creativecommons.org/ns#"
   xmlns:rdf="http://www.w3.org/1999/02/22-rdf-syntax-ns#"
   xmlns:svg="http://www.w3.org/2000/svg"
   xmlns="http://www.w3.org/2000/svg"
   xmlns:sodipodi="http://sodipodi.sourceforge.net/DTD/sodipodi-0.dtd"
   xmlns:inkscape="http://www.inkscape.org/namespaces/inkscape"
   id="Layer_1"
   data-name="Layer 1"
   viewBox="0 0 383 178.62"
   version="1.1"
   sodipodi:docname="Bonitas_2020_black.svg"
   inkscape:version="0.92.3 (2405546, 2018-03-11)">
  <metadata
     id="metadata38">
    <rdf:RDF>
      <cc:Work
         rdf:about="">
        <dc:format>image/svg+xml</dc:format>
        <dc:type
           rdf:resource="http://purl.org/dc/dcmitype/StillImage" />
      </cc:Work>
    </rdf:RDF>
  </metadata>
  <sodipodi:namedview
     pagecolor="#ffffff"
     bordercolor="#666666"
     borderopacity="1"
     objecttolerance="10"
     gridtolerance="10"
     guidetolerance="10"
     inkscape:pageopacity="0"
     inkscape:pageshadow="2"
     inkscape:window-width="1881"
     inkscape:window-height="777"
     id="namedview36"
     showgrid="false"
     inkscape:zoom="3.8093995"
     inkscape:cx="191.5"
     inkscape:cy="89.309998"
     inkscape:window-x="-3"
     inkscape:window-y="141"
     inkscape:window-maximized="0"
     inkscape:current-layer="Layer_1" />
  <defs
     id="defs27">
    <style
       id="style25">.cls-1{fill:#ba0d36;}.cls-2{fill:#333436;}</style>
  </defs>
  <title
     id="title29">Bonitas_2020_black</title>
  <path
     class="cls-1"
     d="M75.51,93.3c17.8-7.66,29-16.9,33.4-27.48a23.26,23.26,0,0,0-2.09-22.36C100.07,33,85.2,25.35,71.47,25.2a48.57,48.57,0,0,0-5.6.27c-21,2.24-38.71,16.64-39.43,32.1A27.11,27.11,0,0,0,27.89,67C30.65,74.78,36.63,79,42.42,83l.35.25c-.92,2.11-2,4.28-3.09,6.38-3.74,7.37-7.61,15-4.53,21.22,5.26,10.61,21.94,15.55,35.7,15h0c10.5-.45,18.61-3.86,22.26-9.33,2.34-3.53,2.79-7.07,1.33-10.53C91.75,99.59,82.94,94.83,75.51,93.3ZM38.63,60.35c3.29-14,18.79-25.88,34.55-26.56l.47,0c6.67-.19,12.86,2,17,6.08,3.78,3.71,5.76,8.82,5.73,14.77s-3.37,12-6.22,15.44C82.83,79,69.43,86.45,53.29,90.66,55,87.41,56.63,84,58.41,80.3c1.3-2.69,2.66-5.47,4.14-8.46.85-1.72,2-3.74,3.12-5.89,3-5.61,6.2-11.41,6.08-13.84-.18-3.86-4.38-9-7.25-8.88h-.06a2.18,2.18,0,0,0-.46.09c-1.66.28-3.61,2.82-5.79,7.56L45.5,77.52C41.82,75,36.43,69.65,38.63,60.35Zm42.32,50c-2.87,4-10.51,7.06-18.6,7.41-7,.3-14.89-1.54-16.31-7.62-.58-2.49.87-5.73,2.41-9.16.18-.41.37-.82.55-1.24l2.44-.15c1.91-.12,4.09-.26,6.4-.36C63.32,99,80,98.24,82,104.81A6.13,6.13,0,0,1,81,110.32ZM355.7,69.15a12.24,12.24,0,0,0-2.13,3.19A32.56,32.56,0,0,0,351,83.83c-.15,3.82.1,7.77.33,11.59.52,8.48,1,16.48-3,20.8-2.11,2.25-5.26,3.35-9.63,3.35a22.31,22.31,0,0,1-17.37-9h0c-.37-.51-.55-.18-.92.25h0a21.4,21.4,0,0,1-14.77,6.51c-5,0-8.42-2.39-9.66-6.62h0c-.2-.59-.48-.46-1,0l-.62.66h0c-2.95,3.08-7.57,6.57-13.22,6.31-4.84-.21-10.72-2.66-12.23-8.76h0c-.11-.39-.32-.34-.67,0-4.39,4.25-11.83,8.39-19.59,8.39-4.67,0-12.88-1.55-15.93-8.79a.05.05,0,0,1,0,0c-.2-.44-.36-.36-.69,0h0c-4.15,4.48-13.16,8.89-20.35,8.89-5,0-8.71-2.18-10.72-6.26l0-.05c-.24-.48-.54-.15-.94.17h0c-4.25,3.37-10.33,6.12-15.75,6.12-5,0-8.67-2.38-10.5-6.87-2.23-5.49-.16-12.13,1.85-17l-.09.08c-9.92,9.21-12.14,11.78-17,17.45-2.76,3-5.82,5.91-8.59,6.19a5.41,5.41,0,0,1-.59,0c-2.39,0-6.63-1.22-8.19-3.85a4.52,4.52,0,0,1,.1-4.64l.14-.28a10.5,10.5,0,0,1-5.49-1.3,16.66,16.66,0,0,1-1.61-1c-.29.4-.57.78-.84,1.11-5.44,6.92-11.23,10.29-17.71,10.29a19.87,19.87,0,0,1-3.32-.29c-5.15-.89-11.3-3-13.15-11.56-1.88-8.74,3.17-21.42,9-30.11,4.72-7,9.82-11.48,14-12.23a10.33,10.33,0,0,1,1.87-.16c6.82,0,15.25,6.31,17.68,11.54,2.71,5.82,1,12-.3,17a38.94,38.94,0,0,1-2.26,5.91,5.4,5.4,0,0,0,3.38,1.07,5.62,5.62,0,0,0,4.73-2.07,43,43,0,0,0,3-5.06l11.82-22.41c1.77-3.56,3.54-6.49,5.07-6.71a4.92,4.92,0,0,1,.67,0,7.38,7.38,0,0,1,6.83,6.38c.33,4.21-2.89,10.32-5.23,14.79-.24.45-.46.88-.67,1.29-1.31,2.52-2.62,4.93-3.89,7.27-.62,1.15-1.23,2.27-1.79,3.32,8.38-7.88,17.21-17.57,23.3-24.5.57-.65,1.2-1.48,1.87-2.35,2-2.7,4.38-5.75,6.69-6.16a6.38,6.38,0,0,1,1.08-.09c4,0,7.67,3.63,8,6,.35,2.52-2.19,6.18-4.24,9.13-.46.66-.89,1.29-1.25,1.84-1,1.6-2.11,3.21-3.14,4.75-2,3.05-4.12,6.19-6,9.39l-.05.08c-3.9,6.34-7,11.35-6.53,14.33.11.73.7,1.1,1.73,1.1a5.91,5.91,0,0,0,1.49-.22c3.32-1,6.26-3,9.26-6.36,5.22-5.8,9.34-12.38,13.33-18.75,1.37-2.19,2.77-4.42,4.21-6.61v0L214.25,75c.92-1.41,1.89-3,2.84-4.37.17-.24.33-.48.5-.71h0a6.41,6.41,0,0,1,3.57-2.74,6,6,0,0,1,1-.08c3.51,0,6.81,3.21,7.1,5.31a5.86,5.86,0,0,1-.68,3.07h0l0,0a21.66,21.66,0,0,1-1.68,3c-.31.54-.64,1.09-1,1.65-1.34,2.11-2.94,4.52-4.55,6.94a0,0,0,0,1,0,0c-.92,1.33-1.85,2.67-2.64,4l-1,1.68a3.9,3.9,0,0,1-.25.36c-.09.17-.18.34-.28.5l-.05.08C213,100,209.75,105,210.24,108c.12.73,1.11,1.1,2.19,1.1a6.5,6.5,0,0,0,1.56-.22,22.42,22.42,0,0,0,10.08-6.36c5.47-5.8,9.78-12.38,14-18.75,1.5-2.28,3-4.61,4.61-6.9l1-1.62-1-.15-1.51-.18a5.05,5.05,0,0,1-4.51-5.67,5.28,5.28,0,0,1,5.73-4.64l.34,0h.05c.61.1,1.27.23,1.86.36s1,.22,1.43.29c.84.15,1.94.25,3,.35l.54,0L256,55.17c2.43-3.81,4-6.21,6.21-6.59a6.38,6.38,0,0,1,1.08-.09h.14a3.56,3.56,0,0,1,.55,0,9.57,9.57,0,0,1,6.73,4.41c.72,1.29,1.26,3.21-2.16,8.47l-.45.68-1.32,2.08-1,1.57-.61.92,4.24.25h0a4.13,4.13,0,0,1,3.87,4.47,4.33,4.33,0,0,1-4.23,4l-9.67.1-2.09,3.16c-6.75,10.14-16,24.9-14.43,28.51.74,1.66,2.39,2,4.25,2a16.92,16.92,0,0,0,2.45-.23c8.83-1.31,16.37-8.41,20.9-18.55a62.48,62.48,0,0,1,12-18.37c4.88-5,8.42-8,13.24-8a19.72,19.72,0,0,1,11.27,4.38c2.64,2.19,2.79,2.66,3,4.51v0l1.12.64c2.19,1.23,4.92,2.76,5.23,5.12.27,2-2.64,6.46-6.19,11.65-1,1.48-1.89,2.75-2.29,3.48-.51.91-1.06,1.82-1.6,2.69-2.12,3.46-4.12,6.72-3.73,10.73a2.27,2.27,0,0,0,2.28,2,3.83,3.83,0,0,0,1.56-.38c3.44-1.73,5.84-4.92,8.16-8,.61-.81,1.19-1.58,1.79-2.32a268.08,268.08,0,0,0,20.12-29.27l1.09-1.81c2.53-4.22,6.35-10.6,9.33-12.73a2.58,2.58,0,0,1,1.57-.46c3.29,0,8.39,4.41,9.1,7.18C358.71,65.58,357.25,67.32,355.7,69.15Zm-227.55,5.1h0c-.61,0-2.82.23-5.51,3.22a56.21,56.21,0,0,0-8.22,13.12c-2.17,4.76-5.08,11.17-3.77,16.92.37,1.26,1.55,3.07,4.61,1.38l.34-.2.1-.06c5-3.2,8.14-8.38,11.15-13.41.32-.52.63-1,1-1.58A36.68,36.68,0,0,1,128.15,74.25Zm172.23,4.47c.39-4.37-2.12-5.77-6-3-8,6.43-13.79,15.84-16.73,27,0,0,0,.09,0,.14s0,.06,0,.09c-1.6,6.83,1.72,8.47,6.52,4.33,2.79-2.5,4.87-5.68,7-9,.6-.93,1.22-1.88,1.85-2.81C297.19,89.38,299.67,83.73,300.38,78.72ZM341.25,84c-1.63,2.14-3.44,4.43-5.34,6.85-3.48,4.43-7.09,9-9.77,12.9,2.1,5.51,5.13,8.07,9,7.58C339.61,110.8,341.65,101.61,341.25,84ZM235.93,46.9c9.64,1.09,5,13.57-2,14.29C222.9,62.33,226.1,45.78,235.93,46.9Z"
     id="path31" />
  <path
     class="cls-2"
     d="M321.19,149.26c-.05,2.11-1.44,3-2.62,3-.91,0-1.24-.52-1.24-1.38,0-1.39.9-1.63,2.36-1.63Zm-4.26-2.85a3,3,0,0,1,2.36-.94c1.41,0,1.88.51,1.88,2.09V148h-1.31a5.55,5.55,0,0,0-3.17.75,2.42,2.42,0,0,0-1,2.2,2.46,2.46,0,0,0,.73,1.95,2.7,2.7,0,0,0,2,.7,3.14,3.14,0,0,0,2.91-1.72l0,1.52h1.51v-6c0-2.4-1.17-3.33-3.44-3.33a4.17,4.17,0,0,0-3.31,1.28Zm-5,4.65a3,3,0,0,1-2.3,1.11c-1.54,0-1.93-1.15-1.93-3.35s.39-3.29,2.2-3.29a2.69,2.69,0,0,1,1.94.71l.94-1.1a3.85,3.85,0,0,0-2.9-1.08,3.55,3.55,0,0,0-2.83,1.08A5.7,5.7,0,0,0,306,149a5.13,5.13,0,0,0,1,3.53,3.22,3.22,0,0,0,2.61,1.08,4.11,4.11,0,0,0,3.37-1.54Zm-11.91-9.85a1.06,1.06,0,1,0,2.12,0,1.06,1.06,0,1,0-2.12,0m.23,12.21h1.65v-9.14h-1.65Zm-8.53-9.14v9.14h1.65V149.9c0-2.18.71-4.21,2.31-4.21a1.7,1.7,0,0,1,.78.17l.46-1.54a2.44,2.44,0,0,0-1.1-.26,2.69,2.69,0,0,0-2.54,2v-1.81ZM282.47,146h1.61v7.42h1.65V146h2.45v-1.44h-2.45v-.7c0-1.68.29-2.45,1.83-2.45a2.64,2.64,0,0,1,1.28.27l.6-1.26a3.47,3.47,0,0,0-1.92-.48c-2.54,0-3.44,1.83-3.44,3.92v.7h-1.61ZM277,148.82H273l2.05-6.26Zm3.31,4.6-4.24-12.63H274l-4.3,12.63h1.82l1.06-3.15h4.9l1,3.15Zm-26.27-14v14h1.65v-3.19c0-3.44,1.32-4.67,2.64-4.67,1,0,1.28.64,1.28,1.83v6h1.64V147.1c0-1.92-1-3-2.65-3a3,3,0,0,0-2.91,2v-6.63Zm-4,12.51a6.54,6.54,0,0,1-1.45.18c-1.22,0-1.32-.53-1.32-1.81v-4.4h2.79v-1.44h-2.79v-2.84l-1.62.2v2.64H244v1.44h1.67v4.49c0,2.14.45,3.17,2.7,3.17a6.8,6.8,0,0,0,1.83-.24Zm-9.61,1.5v-9.14h-1.63v3.35c0,3.26-1.23,4.54-2.53,4.54-1,0-1.32-.82-1.32-1.9v-6h-1.64v6.32c0,1.94.91,3,2.63,3a2.92,2.92,0,0,0,3-2.1v1.9Zm-12.89-4.65a4.61,4.61,0,0,1-.66,2.78,2.06,2.06,0,0,1-1.69.64,2,2,0,0,1-1.57-.56A4.08,4.08,0,0,1,223,149a4.6,4.6,0,0,1,.66-2.84,1.92,1.92,0,0,1,1.65-.64,2,2,0,0,1,1.61.59,4.34,4.34,0,0,1,.64,2.71m1.72,0a4.88,4.88,0,0,0-1-3.57,3.68,3.68,0,0,0-2.89-1.1,3.76,3.76,0,0,0-3,1.17,5.17,5.17,0,0,0-1.1,3.78,4.67,4.67,0,0,0,1,3.49,4.35,4.35,0,0,0,5.88-.09,4.93,4.93,0,0,0,1.1-3.68m-11.72-7.12a5.64,5.64,0,0,0-3.37-1,4.81,4.81,0,0,0-3,.91,2.9,2.9,0,0,0-1.18,2.45c0,4.31,6.13,3.13,6.13,6.17,0,1.65-1.08,2-2.33,2a4.86,4.86,0,0,1-3.11-1l-.88,1.25a5.63,5.63,0,0,0,3.74,1.24,5.36,5.36,0,0,0,2.93-.79,3.27,3.27,0,0,0,1.39-2.78c0-4.41-6.16-3.35-6.16-6.13,0-1.45.92-1.87,2.17-1.87a5,5,0,0,1,2.8.8Zm-20.76,2.67v9.14h1.64V149.9c0-2.18.72-4.21,2.31-4.21a1.74,1.74,0,0,1,.79.17l.46-1.54a2.44,2.44,0,0,0-1.1-.26,2.7,2.7,0,0,0-2.55,2l0-1.81Zm-5.77,4.49a4.54,4.54,0,0,1-.66,2.78,2,2,0,0,1-1.68.64,2,2,0,0,1-1.58-.56,4.08,4.08,0,0,1-.64-2.68,4.66,4.66,0,0,1,.66-2.84,1.94,1.94,0,0,1,1.65-.64,2,2,0,0,1,1.61.59,4.34,4.34,0,0,1,.64,2.71m1.72,0a4.92,4.92,0,0,0-1-3.57,3.7,3.7,0,0,0-2.9-1.1,3.76,3.76,0,0,0-3,1.17,5.17,5.17,0,0,0-1.1,3.78,4.63,4.63,0,0,0,1,3.49,4.34,4.34,0,0,0,5.87-.09,4.93,4.93,0,0,0,1.1-3.68M176.4,146H178v7.42h1.64V146h2.46v-1.44h-2.46v-.7c0-1.68.29-2.45,1.83-2.45a2.62,2.62,0,0,1,1.28.27l.61-1.26a3.5,3.5,0,0,0-1.92-.48c-2.55,0-3.44,1.83-3.44,3.92v.7H176.4Zm-13.34,6.17c-1.3,0-1.71-1.11-1.71-3.26s.41-3.37,2.15-3.37a2.14,2.14,0,0,1,1.59.57,3.06,3.06,0,0,1,.71,2.27,4.25,4.25,0,0,1-1,3,2.37,2.37,0,0,1-1.74.78m2.69-12.76v5.81a2.62,2.62,0,0,0-2.42-1.12,3.36,3.36,0,0,0-2.6,1,5.48,5.48,0,0,0-1.13,3.9,5.12,5.12,0,0,0,1.08,3.73,2.62,2.62,0,0,0,2.07.88,3.44,3.44,0,0,0,3.07-1.81v1.61h1.57v-14Zm-12.09,1.8a1.06,1.06,0,0,0,1.07,1.08,1,1,0,0,0,1.06-1.08,1.07,1.07,0,0,0-2.13,0m.24,12.21h1.65v-9.14H153.9Zm-6.37-4.6h-4.08l2.05-6.26Zm3.31,4.6-4.24-12.63h-2.15l-4.3,12.63H142l1.07-3.15h4.9l1,3.15Zm-20.79,0h1.64v-14h-1.64Zm-6-4.16c-.06,2.11-1.45,3-2.62,3-.92,0-1.25-.52-1.25-1.38,0-1.39.9-1.63,2.36-1.63Zm-4.27-2.85a3,3,0,0,1,2.36-.94c1.41,0,1.89.51,1.89,2.09V148h-1.32a5.59,5.59,0,0,0-3.17.75,2.44,2.44,0,0,0-1,2.2,2.5,2.5,0,0,0,.73,1.95,2.72,2.72,0,0,0,2,.7,3.12,3.12,0,0,0,2.91-1.72l0,1.52h1.52v-6c0-2.4-1.17-3.33-3.44-3.33a4.18,4.18,0,0,0-3.32,1.28Zm-5,4.65a3,3,0,0,1-2.31,1.11c-1.54,0-1.92-1.15-1.92-3.35s.38-3.29,2.2-3.29a2.71,2.71,0,0,1,1.94.71l.93-1.1a3.84,3.84,0,0,0-2.89-1.08,3.56,3.56,0,0,0-2.84,1.08,5.7,5.7,0,0,0-1.1,3.85,5.18,5.18,0,0,0,1,3.53,3.24,3.24,0,0,0,2.62,1.08,4.13,4.13,0,0,0,3.37-1.54Zm-11.92-9.85a1.06,1.06,0,0,0,1.06,1.08,1,1,0,0,0,1.06-1.08,1.06,1.06,0,1,0-2.12,0m.24,12.21h1.64v-9.14h-1.64Zm-8.81-1.25c-1.3,0-1.7-1.11-1.7-3.26s.4-3.37,2.14-3.37a2.14,2.14,0,0,1,1.59.57,3.06,3.06,0,0,1,.72,2.27,4.21,4.21,0,0,1-1,3,2.36,2.36,0,0,1-1.74.78m2.69-12.76v5.81a2.61,2.61,0,0,0-2.41-1.12,3.34,3.34,0,0,0-2.6,1A5.48,5.48,0,0,0,90.9,149,5.17,5.17,0,0,0,92,152.74a2.63,2.63,0,0,0,2.07.88,3.47,3.47,0,0,0,3.08-1.81v1.61H98.7v-14Zm-15.69,8.43c.09-1.45.57-2.41,2.23-2.41s2,.9,1.93,2.39Zm4.87,3.25a3.73,3.73,0,0,1-2.71,1.1c-1.88,0-2.18-1.19-2.21-3.06l5.85,0c0-.35.06-.83.06-1.12,0-2.16-1-3.92-3.61-3.92a3.72,3.72,0,0,0-2.93,1.19,6,6,0,0,0-1.08,3.87,4.61,4.61,0,0,0,1.12,3.51,3.76,3.76,0,0,0,2.8,1,4.68,4.68,0,0,0,3.61-1.48ZM63.4,140.79l-.71,12.63h1.7l.49-10.67,3.55,10h1.65l3.57-10,.48,10.67h1.72l-.7-12.63H72.79l-3.51,9.63-3.48-9.63Z"
     id="path33"
     style="fill:#000000" />
</svg>
